<?xml version="1.0" encoding="utf-8"?><!-- Uploaded to: SVG Repo, www.svgrepo.com, Generator: SVG Repo Mixer Tools -->
<svg fill="#000000" width="800px" height="800px" viewBox="0 0 24 24" id="paint-brush-2" data-name="Flat Line" xmlns="http://www.w3.org/2000/svg" class="icon flat-line"><path id="secondary" d="M8.88,11.7l8.71,8.71a2,2,0,0,0,2.82-2.82l-8.69-8.7a3.93,3.93,0,0,1-1,1.71A4.29,4.29,0,0,1,8.88,11.7Z" style="fill: rgb(44, 169, 188); stroke-width: 2;"></path><path id="primary" d="M9.1,11.93l8.49,8.48a2,2,0,0,0,2.82,0h0a2,2,0,0,0,0-2.82L11.83,9" style="fill: none; stroke: rgb(0, 0, 0); stroke-linecap: round; stroke-linejoin: round; stroke-width: 2;"></path><path id="primary-2" data-name="primary" d="M3,4.45a5.51,5.51,0,0,1,7.79.4,4.21,4.21,0,0,1-.06,5.75,3.62,3.62,0,0,1-5.1.38C4.06,9.41,4.73,7,3,4.45Z" style="fill: none; stroke: rgb(0, 0, 0); stroke-linecap: round; stroke-linejoin: round; stroke-width: 2;"></path></svg>