<?xml version="1.0" encoding="UTF-8"?>
<svg xmlns="http://www.w3.org/2000/svg" viewBox="0 0 100 100"><path d="M67.6 95C59 95 51 91 45.8 84c-2.1-2.9-5.1-4.7-8.5-5.1H37C17.9 76.2 4.2 59.4 5.3 40c1-18.7 16-33.8 34.7-34.9C59.1 3.9 75.8 17.2 79 36c.1.4.1 1 .2 1.7.3 3.4 2.1 6.6 4.9 8.8 7.5 5.8 11.4 15 10.4 24.5C93.1 83.6 83 93.7 70.4 95h-2.8zM42.4 8.8c-.7 0-1.4 0-2.1.1C23.5 10 10.1 23.4 9.2 40.2c-1 17.4 11.3 32.4 28.5 34.9h.1c4.4.5 8.3 2.9 11.1 6.6C53.8 88.4 61.7 91.9 70 91c10.8-1.1 19.5-9.8 20.7-20.6.9-8.2-2.5-16.1-9-21-3.7-2.9-6.1-7.1-6.4-11.5-.1-.7-.1-1.1-.1-1.3C72.5 20.4 58.6 8.8 42.4 8.8zm19.7 76C56 84.8 50.3 82 46.6 77c-1.4-1.9-3.3-3-5.4-3.3H41C27.5 71.8 17.9 60 18.6 46.3c.7-13.2 11.3-23.8 24.5-24.6 13.5-.9 25.3 8.5 27.5 21.8.1.3.1.7.1 1.2.2 2.2 1.3 4.2 3.2 5.6 5.4 4.1 8.1 10.6 7.4 17.4-1 9-8.2 16.1-17.2 17-.6.1-1.3.1-2 .1zM44.8 25.4h-1.4c-11.1.7-20.3 9.9-20.9 21-.7 11.8 7.5 21.9 19.1 23.5 3.2.4 6.2 2.1 8.1 4.8 3.3 4.4 8.5 6.7 14 6.2 7.2-.7 13-6.5 13.7-13.6.6-5.4-1.6-10.7-5.9-14-2.7-2.1-4.4-5.1-4.6-8.4 0-.4-.1-.7-.1-.9-1.8-10.8-11.2-18.6-22-18.6zM57.7 74c-4.1 0-7.9-1.9-10.4-5.2-.8-1-1.8-1.7-3-1.8h-.1c-9-1.3-15.4-9.1-14.9-18.2.5-8.8 7.5-15.8 16.3-16.4 8.9-.5 16.8 5.6 18.2 14.4 0 .2.1.5.1.8.1 1.2.7 2.3 1.7 3.1 3.6 2.8 5.5 7.2 5 11.7-.6 6-5.5 10.9-11.5 11.5-.5.1-.9.1-1.4.1zm-11-37.8h-.9c-6.7.4-12.3 6-12.6 12.7-.4 7.1 4.6 13.2 11.6 14.2 2.2.3 4.3 1.5 5.6 3.3 1.9 2.6 5 4 8.3 3.6 4.3-.4 7.7-3.8 8.1-8.1.3-3.2-1-6.3-3.5-8.3-1.9-1.4-3-3.6-3.2-5.8 0-.2 0-.4-.1-.5-1.1-6.3-6.7-11.1-13.3-11.1zm-.8 22.4c-3.9 0-7.4-2-8.8-5.4-1.9-4.7 1-10.2 6.4-12.4 2.6-1 5.3-1.1 7.8-.3 2.6.8 4.5 2.6 5.4 4.9 1.9 4.7-1 10.2-6.4 12.4-1.5.6-3 .8-4.4.8zM48 43.8c-1 0-2 .2-3 .6-3.4 1.4-5.4 4.7-4.3 7.4s4.8 3.8 8.2 2.4c3.4-1.4 5.4-4.7 4.3-7.4-.5-1.2-1.6-2.2-3-2.7-.8-.2-1.5-.3-2.2-.3z" fill="#333"/><metadata xmlns:d="https://loading.io/stock/"><d:name>contour map</d:name><d:tags>contour map,atlas,leviation,visualization,visualize</d:tags><d:license>by</d:license><d:slug>6mg5ei</d:slug></metadata></svg>