<?xml version="1.0" encoding="UTF-8" standalone="no"?>
<svg
   xmlns:dc="http://purl.org/dc/elements/1.1/"
   xmlns:cc="http://creativecommons.org/ns#"
   xmlns:rdf="http://www.w3.org/1999/02/22-rdf-syntax-ns#"
   xmlns:svg="http://www.w3.org/2000/svg"
   xmlns="http://www.w3.org/2000/svg"
   xmlns:sodipodi="http://sodipodi.sourceforge.net/DTD/sodipodi-0.dtd"
   xmlns:inkscape="http://www.inkscape.org/namespaces/inkscape"
   version="1.1"
   width="206.611"
   height="206.611"
   viewBox="638.932 206.758 226.611 216.611"
   id="svg22"
   sodipodi:docname="Eraser_icon.svg"
   inkscape:version="0.92.3 (2405546, 2018-03-11)">
  <metadata
     id="metadata28">
    <rdf:RDF>
      <cc:Work
         rdf:about="">
        <dc:format>image/svg+xml</dc:format>
        <dc:type
           rdf:resource="http://purl.org/dc/dcmitype/StillImage" />
      </cc:Work>
    </rdf:RDF>
  </metadata>
  <defs
     id="defs26" />
  <sodipodi:namedview
     pagecolor="#ffffff"
     bordercolor="#666666"
     borderopacity="1"
     objecttolerance="10"
     gridtolerance="10"
     guidetolerance="10"
     inkscape:pageopacity="0"
     inkscape:pageshadow="2"
     inkscape:window-width="1853"
     inkscape:window-height="1025"
     id="namedview24"
     showgrid="false"
     inkscape:lockguides="false"
     inkscape:zoom="3.2307516"
     inkscape:cx="50.268033"
     inkscape:cy="64.06653"
     inkscape:window-x="67"
     inkscape:window-y="27"
     inkscape:window-maximized="1"
     inkscape:current-layer="svg22" />
  <path
     d="m 703.511,400.086 24.006,-24.006 v 0 l 0.905,-0.906 v 0 c 0.906,0.906 2.265,0.906 2.718,0.453 0.906,-0.905 0.453,-1.812 -0.453,-2.718 L 680.864,322.18 c -0.905,-0.906 -2.265,-0.906 -2.718,-0.453 -0.905,0.906 -0.453,1.812 0.453,2.718 v 0 l -1.358,1.358 v 0 l -24.912,24.912 c -4.529,4.529 -4.529,11.776 0,16.306 l 33.518,33.518 c 1.359,1.358 3.171,2.265 5.436,3.17 0.64296,0.28326 0.92622,0.30447 1.358,0.453 6.44418,1.43751 10.87,-4.076 10.87,-4.076 z m -48.465,-35.782 c -2.718,-2.718 -2.718,-7.247 0,-9.965 l 22.194,-22.194 43.935,43.936 -22.193,22.194 c -1.359,1.358 -2.718,1.812 -4.53,1.812 h -1.358 c -1.812,0 -3.171,-0.906 -4.529,-1.812 z"
     id="path2"
     style="fill:#ff2a2a"
     inkscape:connector-curvature="0"
     sodipodi:nodetypes="cccccccccccccsccccccscccsscc" />
  <path
     d="M854.792,245.181c-0.905-0.906-2.265-0.906-3.17,0l-79.265,79.717L761.94,314.48l77-77.906 c0.453-0.453,0.453-1.812,0-2.265c-0.453-0.453-1.812-0.453-2.265,0l-77.453,77.453l-18.117-18.118l74.282-74.282 c0.453-0.453,0.453-1.812,0-2.265s-1.812-0.453-2.265,0l-74.282,74.735l-10.871-10.87l58.883-58.429 c0.905-0.906,0.905-2.265,0-3.171c-0.906-0.906-2.265-0.906-3.171,0l-58.43,58.429l-1.812,1.812l50.276,50.276l1.813-1.812 l79.717-79.717C855.699,247.445,855.699,246.086,854.792,245.181z"
     id="path8" />
  <path
     d="M744.729,358.415l12.682-12.682l0,0c0.905,0.905,2.265,0.905,2.718,0.452c0.905-0.905,0.453-1.812-0.453-2.717 l-50.276-50.276c-0.905-0.906-2.265-0.906-2.718-0.453c-0.905,0.905-0.453,1.812,0.453,2.718l0,0l-12.683,12.682L744.729,358.415z M743.37,342.109c0.906-0.905,2.265-0.905,3.623,0c0.906,0.906,0.906,2.265,0,3.624c-0.905,0.905-2.264,0.905-3.623,0 C742.464,344.827,742.464,343.016,743.37,342.109z M725.251,324.445c0.906-0.906,2.266-0.906,3.624,0 c0.906,0.905,0.906,2.265,0,3.623c-0.906,0.906-2.265,0.906-3.624,0C724.346,326.71,724.346,325.351,725.251,324.445z M707.587,306.327c0.906-0.905,2.265-0.905,3.171,0c0.905,0.906,0.905,2.265,0,3.171c-0.906,0.906-2.265,0.906-3.171,0 C706.681,309.045,706.681,307.233,707.587,306.327z"
     id="path10" />
  <path
     d="M732.046,371.551l3.17-3.171l0,0c0.906,0.906,2.265,0.906,2.718,0.453c0.906-0.906,0.453-1.812-0.453-2.718 l-50.275-50.729c-0.906-0.905-2.265-0.905-2.718-0.452c-0.453,0.452-0.453,1.812,0.453,2.717l0,0l-3.171,3.171L732.046,371.551z"
     id="path12" />
  <path
     d="M738.387,364.757l3.171-3.171l0,0c0.906,0.906,2.265,0.906,2.718,0.453c0.905-0.906,0.453-1.812-0.453-2.718 l-50.276-50.276c-0.906-0.906-2.265-0.906-2.718-0.453c-0.906,0.906-0.453,1.813,0.453,2.718l0,0l-3.171,3.171L738.387,364.757z"
     id="path14" />
  <path
     d="M760.582,342.563l3.17-3.171l0,0c0.906,0.906,2.266,0.906,2.718,0.453c0.906-0.905,0.453-1.812-0.452-2.718 l-49.824-50.276c-0.905-0.905-2.265-0.905-2.718-0.452c-0.905,0.905-0.452,1.812,0.453,2.717l0,0l-3.17,3.171L760.582,342.563z"
     id="path16" />
  <path
     d="M766.922,336.222l3.171-3.171l0,0c0.906,0.906,2.265,0.906,2.718,0.453c0.905-0.906,0.453-1.812-0.453-2.718 l-49.823-50.276c-0.906-0.906-2.265-0.906-2.718-0.453c-0.906,0.906-0.453,1.813,0.453,2.718l0,0l-3.171,3.171L766.922,336.222z"
     id="path18" />
  <path
     d="M659.576,361.133c-0.906-0.905-0.906-2.718,0-3.623l5.889-5.889c0.452-0.453,0.452-1.358,0-1.812 c-0.453-0.453-1.359-0.453-1.813,0l-5.888,5.889c-1.812,1.812-1.812,4.981,0,6.794l6.341,6.341c0.453,0.453,1.359,0.453,1.812,0 c0.453-0.453,0.453-1.358,0-1.812L659.576,361.133z"
     id="path20"
     style="fill:#ff0000" />
</svg>
